<svg xmlns="http://www.w3.org/2000/svg" width="28.25" height="27.844" viewBox="0 0 28.25 27.844">
  <defs>
    <style>
      .cls-1 {
        fill: #fff;
        fill-rule: evenodd;
      }
    </style>
  </defs>
  <path id="icon_line" class="cls-1" d="M778.793,456.018c0-6.532-6.341-11.848-14.136-11.848s-14.136,5.316-14.136,11.848c0,5.859,5.029,10.763,11.822,11.691a1.74,1.74,0,0,1,1.245.72,3.081,3.081,0,0,1,.046,1.32s-0.166,1.03-.2,1.25c-0.061.37-.284,1.443,1.225,0.787s8.141-4.951,11.106-8.476h0A10.722,10.722,0,0,0,778.793,456.018Zm-19.123,3.489a0.28,0.28,0,0,1-.275.285h-3.962a0.262,0.262,0,0,1-.19-0.08,0.005,0.005,0,0,0,0,0l0-.006a0.282,0.282,0,0,1-.077-0.194v-6.363a0.28,0.28,0,0,1,.276-0.284h0.991a0.279,0.279,0,0,1,.275.284V458.2H759.4a0.28,0.28,0,0,1,.275.285v1.023Zm2.39,0a0.279,0.279,0,0,1-.275.282h-0.992a0.279,0.279,0,0,1-.275-0.282v-6.363a0.279,0.279,0,0,1,.275-0.284h0.992a0.279,0.279,0,0,1,.275.284v6.363Zm6.825,0a0.279,0.279,0,0,1-.276.282h-0.991a0.232,0.232,0,0,1-.07-0.01h0a0.059,0.059,0,0,1-.019,0l-0.008,0-0.014-.006-0.013-.007-0.008,0a0.082,0.082,0,0,1-.017-0.011,0.008,0.008,0,0,1,0,0,0.259,0.259,0,0,1-.07-0.07l-2.826-3.941v3.779a0.279,0.279,0,0,1-.275.282H763.3a0.28,0.28,0,0,1-.276-0.282v-6.363a0.28,0.28,0,0,1,.276-0.284h1.029l0.012,0,0.016,0,0.009,0,0.017,0a0.013,0.013,0,0,1,.008,0l0.016,0.008,0.009,0,0.015,0.008,0.008,0,0.014,0.01,0.007,0.005c0.006,0,.01.01,0.015,0.013a0.024,0.024,0,0,1,0,0,0.149,0.149,0,0,1,.017.018l0,0a0.292,0.292,0,0,1,.021.028l2.823,3.939v-3.781a0.279,0.279,0,0,1,.275-0.284h0.991a0.28,0.28,0,0,1,.276.284v6.363Zm5.475-5.338a0.279,0.279,0,0,1-.275.284h-2.694v1.076h2.694a0.28,0.28,0,0,1,.275.285v1.023a0.281,0.281,0,0,1-.275.285h-2.694V458.2h2.694a0.28,0.28,0,0,1,.275.285v1.023a0.28,0.28,0,0,1-.275.285h-3.961a0.264,0.264,0,0,1-.19-0.08l0,0,0-.006a0.278,0.278,0,0,1-.077-0.194v-6.363h0a0.3,0.3,0,0,1,.076-0.2l0,0,0,0a0.265,0.265,0,0,1,.191-0.08h3.961a0.279,0.279,0,0,1,.275.284v1.025Z" transform="translate(-750.531 -444.156)"/>
</svg>
