<svg xmlns="http://www.w3.org/2000/svg" width="27.812" height="22" viewBox="0 0 27.812 22">
  <defs>
    <style>
      .cls-1 {
        fill: #fff;
        fill-rule: evenodd;
      }
    </style>
  </defs>
  <path id="icon_tw" class="cls-1" d="M630.708,468.86a15.9,15.9,0,0,0,16.236-15.8c0-.239,0-0.478-0.017-0.716a11.413,11.413,0,0,0,2.847-2.877,11.6,11.6,0,0,1-3.277.875,5.6,5.6,0,0,0,2.509-3.072,11.6,11.6,0,0,1-3.623,1.347,5.775,5.775,0,0,0-4.165-1.754,5.634,5.634,0,0,0-5.708,5.554,5.4,5.4,0,0,0,.148,1.266,16.354,16.354,0,0,1-11.762-5.8,5.435,5.435,0,0,0-.772,2.792,5.516,5.516,0,0,0,2.539,4.624,5.817,5.817,0,0,1-2.585-.7c0,0.025,0,.047,0,0.072a5.594,5.594,0,0,0,4.578,5.444,5.823,5.823,0,0,1-1.5.2,5.658,5.658,0,0,1-1.073-.1,5.691,5.691,0,0,0,5.331,3.857,11.645,11.645,0,0,1-7.087,2.38,11.778,11.778,0,0,1-1.362-.078,16.482,16.482,0,0,0,8.748,2.5" transform="translate(-621.969 -446.875)"/>
</svg>
